<?xml version="1.0" encoding="utf-8"?>
<!-- Generator: Adobe Illustrator 16.0.0, SVG Export Plug-In . SVG Version: 6.00 Build 0)  -->
<!DOCTYPE svg PUBLIC "-//W3C//DTD SVG 1.0//EN" "http://www.w3.org/TR/2001/REC-SVG-20010904/DTD/svg10.dtd">
<svg version="1.0" id="Layer_1" xmlns="http://www.w3.org/2000/svg" xmlns:xlink="http://www.w3.org/1999/xlink" x="0px" y="0px"
	 width="100px" height="100px" viewBox="0 0 100 100" enable-background="new 0 0 100 100" xml:space="preserve">
<polygon fill="#F2F2F2" points="79,96 14.083,94.833 11.333,12.333 13.917,4.833 79,4 77.5,9.777 80,17.167 "/>
<g>
	<path fill-rule="evenodd" clip-rule="evenodd" d="M79.735,4.954c-2.756,0-5.509,0-8.262,0C55.841,4.952,40.208,4.817,24.579,5.03
		c-4.608,0.062-11.637-2.134-11.8,5.477c-0.163,7.671,6.825,5.765,11.492,5.816c15.63,0.169,31.263,0.058,46.895,0.054
		c2.874,0,5.748,0,9.466,0c0.183,3.51,0.177,6.338,0.506,9.127c1.017,8.546,2.171,17.076,3.244,25.616
		c0.229,1.833,1.06,4.031,0.373,5.466c-4.411,9.253,2.016,14.017,7.496,19.282c1.134,1.09,2.675,2.345,2.861,3.686
		c0.253,1.815-0.012,4.467-1.175,5.509c-1.187,1.063-3.977,1.271-5.619,0.655c-2.055-0.769-3.653-2.758-6.73-5.26
		C81.229,87,80.942,92.277,80.617,98.219c-21.592,0-42.479,0.305-63.336-0.37c-2.727-0.087-7.523-5.148-7.586-7.988
		c-0.582-26.479-0.55-52.981-0.021-79.462c0.055-2.783,4.378-7.779,6.839-7.854c21.088-0.629,42.2-0.361,63.307-0.361
		C79.794,3.107,79.763,4.031,79.735,4.954z M77.854,39.05c0-5.588,0.523-10.146-0.238-14.477c-0.343-1.938-3.224-4.853-5.008-4.895
		c-16.396-0.38-32.811-0.409-49.205,0.026c-1.882,0.051-5.233,3.547-5.267,5.492c-0.381,21.689,0.446,43.555-0.083,65.088
		c-0.04,1.618,2.343,4.587,3.633,4.607c18.42,0.304,36.845,0.207,56.236,0.207c0-3.853,0-6.699,0-9.548
		c-0.003-11.158,0.004-11.076-10.576-10.032c-8.419,0.833-15.183-2.351-19.467-9.611c-4.271-7.24-4.004-14.8,0.916-21.684
		c4.938-6.901,11.972-9.321,20.258-7.822C71.578,36.858,74.001,37.868,77.854,39.05z M81.663,56.275
		c0.185-9.137-7.063-16.943-16.035-17.271c-9.321-0.341-17.405,7.376-17.464,16.676c-0.058,9.046,7.35,16.593,16.493,16.802
		C73.788,72.689,81.477,65.36,81.663,56.275z M80.21,69.522c-0.16,0.17-0.319,0.342-0.481,0.515
		c3.943,4.217,7.882,8.435,11.822,12.653c0.331-0.343,0.665-0.685,0.998-1.027C88.438,77.616,84.322,73.568,80.21,69.522z"/>
	<path fill-rule="evenodd" clip-rule="evenodd" d="M23.232,8.875c17.697,0,35.394,0,53.089,0c0.004,0.596,0.004,1.206,0.008,1.804
		c-17.816,0-35.631,0-53.447,0C22.998,10.081,23.115,9.471,23.232,8.875z"/>
	<path fill-rule="evenodd" clip-rule="evenodd" fill="#F2F2F2" d="M81.663,56.275c-0.187,9.085-7.875,16.414-17.006,16.207
		c-9.144-0.209-16.551-7.756-16.493-16.802c0.059-9.3,8.143-17.017,17.464-16.676C74.601,39.332,81.848,47.139,81.663,56.275z"/>
	<path fill-rule="evenodd" clip-rule="evenodd" fill="#F2F2F2" d="M80.21,69.522c4.112,4.046,8.228,8.094,12.339,12.141
		c-0.286,1.047-0.314,1.493-1.893,1.899c-1.906-0.406-8.01-8.424-11.953-12.641C79.219,70.641,80.05,69.692,80.21,69.522z"/>
	<path fill-rule="evenodd" clip-rule="evenodd" d="M75.292,53.833c-3.112,8.37-10.823,17.696-11.75,17.688
		c-2.323-6.385-6.229-12.792-8.554-19.178c4.397,5.302,10.151,16.271,17.647,0.552C72.636,52.896,74.748,53.341,75.292,53.833z"/>
</g>
<g>
	<path d="M67.248,51.06l-1.571,1.008l-0.184-4.438l6.24,0.963c0,1.42-0.1,2.476-0.299,3.168c-0.193,0.666-0.599,1.342-1.215,2.027
		c-0.604,0.679-1.336,1.174-2.195,1.485c-0.86,0.312-1.782,0.467-2.766,0.467c-1.464,0-2.794-0.242-3.99-0.729
		c-1.202-0.473-2.13-1.258-2.784-2.354c-0.66-1.077-0.99-2.285-0.99-3.625c0-2.024,0.666-3.656,1.999-4.896
		c1.32-1.24,2.94-1.859,4.858-1.859c1.602,0,2.856,0.389,3.766,1.168l-1.065-3.221l4.156,3.219l0.039,3.637h-3.13
		c-0.274-0.561-0.631-0.984-1.069-1.271c-0.439-0.287-0.952-0.43-1.537-0.43c-0.822,0-1.427,0.268-1.813,0.803
		c-0.38,0.536-0.57,1.52-0.57,2.953c0,1.427,0.199,2.395,0.598,2.906c0.405,0.517,0.994,0.775,1.767,0.775
		C66.663,52.816,67.248,52.23,67.248,51.06z"/>
</g>
</svg>
